<svg data-v-0dd9719b="" version="1.0" xmlns="http://www.w3.org/2000/svg" xmlns:xlink="http://www.w3.org/1999/xlink" width="100%" height="100%" viewBox="0 0 340.000000 250.000000" preserveAspectRatio="xMidYMid meet" color-interpolation-filters="sRGB" style="margin: auto;"> <rect data-v-0dd9719b="" x="0" y="0" width="100%" height="100%" fill="#fff" fill-opacity="1" class="background"></rect> <rect data-v-0dd9719b="" x="0" y="0" width="100%" height="100%" fill="url(#watermark)" fill-opacity="1" class="watermarklayer"></rect> <g data-v-0dd9719b="" class="iconmbgsvg" transform="translate(52.30999755859375,49.627662658691406)"><g fill="#0f0f0f" hollow-target="textRect"><g mask="url(#d4d6b225-cdcb-42c0-bb9f-8bebca2b73bc)"><g><rect fill="#0f0f0f" fill-opacity="0" stroke-width="2" x="0" y="0" width="150" height="150.74467871284145" class="image-rect"></rect> <svg x="0" y="0" width="150" height="150.74467871284145" filtersec="colorsb9479687507" class="image-svg-svg primary" style="overflow: visible;"><svg xmlns="http://www.w3.org/2000/svg" viewBox="0.078000009059906 0.003000000026077032 99.8499984741211 100.34600067138672"><path fill="#0F0F0F" d="M.079 41.934l43.435 14.98 16.477 43.435L99.928.003.078 41.933zM51 48.924l-22.964-7.99 53.917-22.46-21.97 53.917L51 48.924z"></path></svg></svg> <!----></g></g> <g transform="translate(96.62000274658203,57.64233684539795)"><g data-gra="path-name" fill-rule="" class="tp-name"><g transform="scale(1)"><g><path d="M8.93-5.15L19.7-5.15 19.7 0 3 0 3-27.07 8.93-27.07 8.93-5.15ZM23.59 0L23.59-27.07 29.52-27.07 29.52 0 23.59 0ZM42.47 0L42.47-10.72 32.64-27.07 39.58-27.07 45.4-16.26 45.63-16.26 51.64-27.07 58.3-27.07 48.44-10.84 48.44 0 42.47 0ZM72.62 0.39L72.62 0.39Q69.89 0.39 67.78-0.08 65.68-0.55 64.23-1.62 62.79-2.69 62.05-4.49 61.31-6.28 61.31-8.97L61.31-8.97 61.31-27.07 67.24-27.07 67.24-9.63Q67.24-8.42 67.47-7.49 67.7-6.55 68.33-5.93 68.95-5.3 70-4.99 71.06-4.68 72.66-4.68L72.66-4.68Q74.33-4.68 75.39-5.03 76.44-5.38 77.04-6.03 77.65-6.67 77.88-7.59 78.12-8.5 78.12-9.63L78.12-9.63 78.12-27.07 84.01-27.07 84.01-8.97Q84.01-6.47 83.25-4.7 82.48-2.92 81.02-1.79 79.56-0.66 77.45-0.14 75.35 0.39 72.62 0.39ZM108.81 0L106.51-6.71 95.51-6.71 93.17 0 87.01 0 97.11-27.07 105.07-27.07 115.09 0 108.81 0ZM97.23-11.62L104.79-11.62 101.28-21.88 100.81-21.88 97.23-11.62ZM118.17 0L118.17-27.07 127.22-27.07 135.72-7.72 135.95-7.72 135.95-27.07 141.76-27.07 141.76 0 133.61 0 124.25-20.59 124.02-20.59 124.02 0 118.17 0Z" transform="translate(-3, 27.06999969482422)"></path></g> <!----> <!----> <!----> <!----> <!----> <!----> <!----></g></g> <!----></g></g></g><mask id="d4d6b225-cdcb-42c0-bb9f-8bebca2b73bc"><g fill="white"><g><rect fill-opacity="1" stroke-width="2" x="0" y="0" width="150" height="150.74467871284145" class="image-rect"></rect> <svg x="0" y="0" width="150" height="150.74467871284145" filtersec="colorsb9479687507" class="image-svg-svg primary" style="overflow: visible;"><svg xmlns="http://www.w3.org/2000/svg" viewBox="0.078000009059906 0.003000000026077032 99.8499984741211 100.34600067138672"><path d="M.079 41.934l43.435 14.98 16.477 43.435L99.928.003.078 41.933zM51 48.924l-22.964-7.99 53.917-22.46-21.97 53.917L51 48.924z"></path></svg></svg> </g></g> <g transform="translate(96.62000274658203,57.64233684539795)"><rect fill="black" fill-opacity="1" x="-3.5" y="-3.5" width="145.75999450683594" height="34.46000099182129"></rect><rect fill="black" fill-opacity="1" x="-3.5" y="-3.5"></rect></g><g transform="translate(96.62000274658203,57.64233684539795)" fill="black"><g data-gra="path-name" fill-rule="" class="tp-name"><g transform="scale(1)"><g><path d="M8.93-5.15L19.7-5.15 19.7 0 3 0 3-27.07 8.93-27.07 8.93-5.15ZM23.59 0L23.59-27.07 29.52-27.07 29.52 0 23.59 0ZM42.47 0L42.47-10.72 32.64-27.07 39.58-27.07 45.4-16.26 45.63-16.26 51.64-27.07 58.3-27.07 48.44-10.84 48.44 0 42.47 0ZM72.62 0.39L72.62 0.39Q69.89 0.39 67.78-0.08 65.68-0.55 64.23-1.62 62.79-2.69 62.05-4.49 61.31-6.28 61.31-8.97L61.31-8.97 61.31-27.07 67.24-27.07 67.24-9.63Q67.24-8.42 67.47-7.49 67.7-6.55 68.33-5.93 68.95-5.3 70-4.99 71.06-4.68 72.66-4.68L72.66-4.68Q74.33-4.68 75.39-5.03 76.44-5.38 77.04-6.03 77.65-6.67 77.88-7.59 78.12-8.5 78.12-9.63L78.12-9.63 78.12-27.07 84.01-27.07 84.01-8.97Q84.01-6.47 83.25-4.7 82.48-2.92 81.02-1.79 79.56-0.66 77.45-0.14 75.35 0.39 72.62 0.39ZM108.81 0L106.51-6.71 95.51-6.71 93.17 0 87.01 0 97.11-27.07 105.07-27.07 115.09 0 108.81 0ZM97.23-11.62L104.79-11.62 101.28-21.88 100.81-21.88 97.23-11.62ZM118.17 0L118.17-27.07 127.22-27.07 135.72-7.72 135.95-7.72 135.95-27.07 141.76-27.07 141.76 0 133.61 0 124.25-20.59 124.02-20.59 124.02 0 118.17 0Z" transform="translate(-3, 27.06999969482422)"></path></g>       </g></g> </g></mask><defs v-gra="od"></defs></svg>